<svg width="83" height="14" viewBox="0 0 83 14" fill="none" xmlns="http://www.w3.org/2000/svg">
<g clip-path="url(#clip0)">
<path d="M0 -0.000164197C0.247808 1.14879 1.07383 2.40219 2.14767 2.71554H5.53437L5.69958 2.81999V13.5783H7.76464V2.81999L7.92985 2.71554H11.3166C12.473 2.29774 13.2164 1.14879 13.4642 -0.000164197H0ZM64.2648 13.5783C65.3386 13.0561 65.9169 12.0116 66.0821 10.8626H56.748V-0.104614H54.6829V13.4739H64.2648V13.5783ZM39.071 2.71554H46.5053C47.5791 2.29774 48.5703 1.25324 48.7355 -0.000164197H37.006V8.04249H46.5879V10.8626H39.071C37.9146 11.2804 36.9234 12.3249 36.4277 13.5783H48.7355V5.43124H39.071V2.71554ZM70.5426 5.43124V13.5783H72.6903V8.14694H80.2071V13.5783H82.3548V5.43124H70.5426ZM20.8159 2.71554H28.8283C29.9021 2.40219 30.8108 1.14879 30.976 -0.000164197H18.5856C18.916 1.25324 19.742 2.40219 20.8159 2.71554ZM20.8159 8.14694H28.8283C29.9021 7.83359 30.8108 6.58019 30.976 5.43124H18.5856C18.916 6.58019 19.742 7.83359 20.8159 8.14694ZM20.8159 13.5783H28.8283C29.9021 13.265 30.8108 12.0116 30.976 10.8626H18.5856C18.916 12.116 19.742 13.3694 20.8159 13.5783ZM72.4425 2.71554H80.4549C81.5288 2.40219 82.4374 1.14879 82.6026 -0.000164197H70.2122C70.46 1.25324 71.286 2.50664 72.4425 2.71554Z" fill="white"/>
</g>
<defs>
<clipPath id="clip0">
<rect width="82.6026" height="13.5785" fill="white"/>
</clipPath>
</defs>
</svg>
